# xmcd
#
# Track frame offsets: 
#        150
#        25457
#        48057
#        67320
#        89062
#        110055
#        135432
#        150737
#        172952
#        192467
#
# Disc length: 2834 seconds
#
# Revision: 0
# Processed by: cddbd v1.5.2PL0 Copyright (c) Steve Scherf et al.
# Submitted via: ExactAudioCopy v1.0b1
#
DISCID=8d0b100a
DTITLE=Iwan Fals - Mata Dewa
DYEAR=1989
DGENRE=Rock
TTITLE0=Mata Dewa
TTITLE1=PHK
TTITLE2=Nona
TTITLE3=Air Mata Api
TTITLE4=Bakar
TTITLE5=Puing
TTITLE6=Berkacalah Jakarta
TTITLE7=Yang Terlupakan
TTITLE8=Perempuan Malam
TTITLE9=Pinggiran Kota Besar
EXTD=
EXTT0=
EXTT1=
EXTT2=
EXTT3=
EXTT4=
EXTT5=
EXTT6=
EXTT7=
EXTT8=
EXTT9=
PLAYORDER=
